<svg width="100" height="100">
  <symbol fill="none" xmlns="http://www.w3.org/2000/svg" viewBox="0 0 12 13" id="telegram">
    <g clip-path="url(#clip0_1_15976)">
      <path
        d="M4.70847 8.09058L4.50997 10.8826C4.79397 10.8826 4.91697 10.7606 5.06447 10.6141L6.39597 9.34158L9.15497 11.3621C9.66097 11.6441 10.0175 11.4956 10.154 10.8966L11.965 2.41058L11.9655 2.41008C12.126 1.66208 11.695 1.36958 11.202 1.55308L0.556967 5.62858C-0.169533 5.91058 -0.158533 6.31558 0.433467 6.49908L3.15497 7.34558L9.47647 3.39008C9.77397 3.19308 10.0445 3.30208 9.82197 3.49908L4.70847 8.09058Z"
        fill="#5D6C7B"></path>
    </g>
    <defs>
      <clipPath id="clip0_1_15976">
        <rect width="12" height="12" fill="white" transform="translate(0 0.5)"></rect>
      </clipPath>
    </defs>
  </symbol>
  <symbol fill="none" xmlns="http://www.w3.org/2000/svg" viewBox="0 0 12 13" id="viber">
    <g clip-path="url(#clip0_1_15970)">
      <path
        d="M6.40796 7.27975C6.27072 7.41708 6.04815 7.41708 5.91082 7.27975L4.31323 5.68216C4.24731 5.61624 4.21023 5.52679 4.21023 5.43359C4.21023 5.3403 4.24731 5.25095 4.31323 5.18494L4.59723 4.90103L3.76309 4.06689L3.07974 4.75024C2.84976 4.98022 2.84985 5.3544 3.07974 5.58438L6.0086 8.51343C6.11929 8.62411 6.26742 8.685 6.42572 8.685C6.58401 8.685 6.73214 8.62402 6.84283 8.51334L7.52618 7.83008L6.69204 6.99585L6.40796 7.27975Z"
        fill="#5D6C7B"></path>
      <path
        d="M11.4957 4.73541C11.4957 3.60831 11.0541 2.54593 10.2519 1.74384C9.4498 0.941742 8.38742 0.5 7.26041 0.5H4.75085C4.75085 0.5 4.75085 0.5 4.75076 0.5C3.62384 0.5 2.56146 0.941742 1.75946 1.74374C0.957367 2.54584 0.515625 3.60831 0.515625 4.73532V6.70792C0.515625 7.58069 0.78186 8.42032 1.28558 9.13599C1.72998 9.76733 2.32764 10.2604 3.02444 10.5732V11.7062C3.02444 12.2921 3.35248 12.4999 3.63336 12.5C3.83405 12.5 4.03482 12.4009 4.23019 12.2057L5.49243 10.9432H7.2605C8.38751 10.9432 9.44989 10.5015 10.252 9.6994C11.0541 8.89731 11.4958 7.83493 11.4958 6.70792L11.4957 4.73541ZM8.27197 8.07864L7.33997 9.01056C7.09644 9.25409 6.77179 9.38803 6.42572 9.38803C6.07965 9.38803 5.755 9.254 5.51147 9.01056L2.58252 6.08151C2.07852 5.57733 2.07852 4.75711 2.58252 4.25302L3.51453 3.32111C3.58044 3.2551 3.6698 3.21811 3.76309 3.21811C3.85629 3.21811 3.94574 3.2551 4.01166 3.32111L5.34302 4.65247C5.40894 4.71838 5.44592 4.80783 5.44592 4.90103C5.44592 4.99423 5.40894 5.08368 5.34293 5.1496L5.05902 5.4335L6.15948 6.53397L6.44348 6.24997C6.58081 6.11273 6.80338 6.11273 6.94061 6.25006L8.27197 7.58142C8.33798 7.64734 8.37497 7.73679 8.37497 7.82999C8.37497 7.92328 8.33798 8.01273 8.27197 8.07864ZM5.73944 3.91299C5.73944 3.7189 5.89682 3.56143 6.091 3.56143C7.30911 3.56143 8.30017 4.5524 8.30017 5.77042C8.30017 5.9646 8.14279 6.12198 7.94861 6.12198C7.75452 6.12198 7.59705 5.9646 7.59705 5.77042C7.59705 4.94012 6.92148 4.26456 6.091 4.26456C5.89682 4.26456 5.73944 4.10718 5.73944 3.91299ZM9.45474 6.12216C9.26056 6.12216 9.10318 5.96469 9.10318 5.7706C9.10327 4.96594 8.78989 4.20953 8.22098 3.64053C7.65198 3.07162 6.89557 2.75824 6.09091 2.75824C5.89682 2.75824 5.73935 2.60086 5.73935 2.40668C5.73935 2.21259 5.89682 2.05511 6.09091 2.05511C7.08334 2.05511 8.01636 2.44165 8.71811 3.1434C9.41995 3.84515 9.8064 4.77817 9.8063 5.7706C9.8063 5.96469 9.64893 6.12216 9.45474 6.12216Z"
        fill="#5D6C7B"></path>
    </g>
    <defs>
      <clipPath id="clip0_1_15970">
        <rect width="12" height="12" fill="white" transform="translate(0 0.5)"></rect>
      </clipPath>
    </defs>
  </symbol>
  <symbol fill="none" xmlns="http://www.w3.org/2000/svg" viewBox="0 0 13 13" id="whatsapp">
    <g clip-path="url(#clip0_1_15973)">
      <path
        d="M6.49685 0.503787C3.18509 0.50449 0.500956 3.18978 0.501659 6.50153C0.501893 7.64828 0.830971 8.7709 1.44982 9.73633L0.516884 12.1569C0.467202 12.2856 0.531289 12.4303 0.660026 12.48C0.688813 12.4911 0.719381 12.4968 0.75023 12.4967C0.778854 12.4969 0.807267 12.492 0.834181 12.4822L3.33271 11.5902C6.14383 13.341 9.842 12.4815 11.5928 9.67033C13.3436 6.85918 12.484 3.16104 9.67286 1.41026C8.71994 0.81675 7.61952 0.502686 6.49685 0.503787Z"
        fill="#5D6C7B"></path>
      <path
        d="M9.35557 7.52445C9.35557 7.52445 8.74344 7.22462 8.36016 7.02475C7.92642 6.80138 7.41672 7.21963 7.17686 7.4575C6.80356 7.3141 6.46261 7.09767 6.17396 6.82087C5.89711 6.53227 5.68068 6.19131 5.53732 5.81796C5.77519 5.57761 6.19244 5.06841 5.97008 4.63467C5.77269 4.2509 5.47038 3.63877 5.47038 3.63877C5.42796 3.55458 5.34178 3.50144 5.2475 3.50134H4.74781C4.02008 3.62703 3.49097 4.262 3.49855 5.00046C3.49855 5.78498 4.43749 7.29211 5.07063 7.92572C5.70377 8.55933 7.21087 9.49779 7.99589 9.49779C8.73435 9.50538 9.36932 8.97624 9.49501 8.24854V7.74884C9.49508 7.65356 9.44102 7.56654 9.35557 7.52445Z"
        fill="#F7F7F7"></path>
    </g>
    <defs>
      <clipPath id="clip0_1_15973">
        <rect width="12" height="12" fill="white" transform="translate(0.5 0.5)"></rect>
      </clipPath>
    </defs>
  </symbol>
  <symbol fill="none" xmlns="http://www.w3.org/2000/svg" viewBox="0 0 14 14" id="burger">
    <line x1="0.65" y1="3.35" x2="12.35" y2="3.35" stroke="white" stroke-width="1.3" stroke-linecap="round"></line>
    <line x1="0.65" y1="8.35" x2="12.35" y2="8.35" stroke="white" stroke-width="1.3" stroke-linecap="round"></line>
    <line x1="6.65" y1="13.35" x2="12.35" y2="13.35" stroke="white" stroke-width="1.3" stroke-linecap="round"></line>
  </symbol>
  <symbol fill="none" xmlns="http://www.w3.org/2000/svg" viewBox="0 0 16 16" id="search">
    <g clip-path="url(#clip0_1_15988)">
      <path
        d="M15.9519 14.8499L10.758 9.65596C11.564 8.61396 11.9999 7.33997 11.9999 5.99997C11.9999 4.39598 11.374 2.89199 10.242 1.75799C9.10996 0.623997 7.60197 0 5.99997 0C4.39798 0 2.88999 0.625997 1.75799 1.75799C0.623997 2.88999 0 4.39598 0 5.99997C0 7.60197 0.625997 9.10996 1.75799 10.242C2.88999 11.376 4.39598 11.9999 5.99997 11.9999C7.33997 11.9999 8.61196 11.564 9.65396 10.76L14.8479 15.9519C14.8632 15.9672 14.8812 15.9793 14.9012 15.9875C14.9211 15.9958 14.9424 16 14.9639 16C14.9855 16 15.0068 15.9958 15.0267 15.9875C15.0466 15.9793 15.0647 15.9672 15.0799 15.9519L15.9519 15.0819C15.9672 15.0667 15.9793 15.0486 15.9875 15.0287C15.9958 15.0088 16 14.9875 16 14.9659C16 14.9444 15.9958 14.9231 15.9875 14.9032C15.9793 14.8832 15.9672 14.8652 15.9519 14.8499V14.8499ZM9.16796 9.16796C8.31996 10.014 7.19597 10.48 5.99997 10.48C4.80398 10.48 3.67998 10.014 2.83199 9.16796C1.98599 8.31996 1.51999 7.19597 1.51999 5.99997C1.51999 4.80398 1.98599 3.67798 2.83199 2.83199C3.67998 1.98599 4.80398 1.51999 5.99997 1.51999C7.19597 1.51999 8.32196 1.98399 9.16796 2.83199C10.014 3.67998 10.48 4.80398 10.48 5.99997C10.48 7.19597 10.014 8.32196 9.16796 9.16796Z"
        fill="white"></path>
    </g>
    <defs>
      <clipPath id="clip0_1_15988">
        <rect width="16" height="16" fill="white"></rect>
      </clipPath>
    </defs>
  </symbol>
  <symbol xmlns="http://www.w3.org/2000/svg" viewBox="0 0 20 20" id="heart">
    <path
      d="M17.9935 5.51496C17.7329 4.90541 17.357 4.35303 16.887 3.88876C16.4167 3.4231 15.8621 3.05305 15.2535 2.79873C14.6224 2.53397 13.9455 2.39845 13.2622 2.40004C12.3034 2.40004 11.3681 2.66518 10.5552 3.166C10.3607 3.28581 10.176 3.4174 10.001 3.56077C9.82594 3.4174 9.6412 3.28581 9.44673 3.166C8.63386 2.66518 7.69847 2.40004 6.73975 2.40004C6.0494 2.40004 5.38043 2.53359 4.74841 2.79873C4.13779 3.05405 3.58745 3.42132 3.11489 3.88876C2.64428 4.35251 2.26834 4.90501 2.00838 5.51496C1.73807 6.14934 1.6 6.823 1.6 7.51629C1.6 8.17031 1.73224 8.85182 1.99477 9.54512C2.21451 10.1245 2.52955 10.7255 2.9321 11.3324C3.56995 12.2928 4.44699 13.2944 5.536 14.3098C7.34066 15.993 9.1278 17.1557 9.20365 17.2028L9.66453 17.5013C9.86872 17.6329 10.1313 17.6329 10.3354 17.5013L10.7963 17.2028C10.8722 17.1537 12.6574 15.993 14.464 14.3098C15.553 13.2944 16.43 12.2928 17.0679 11.3324C17.4704 10.7255 17.7874 10.1245 18.0052 9.54512C18.2677 8.85182 18.4 8.17031 18.4 7.51629C18.4019 6.823 18.2639 6.14934 17.9935 5.51496ZM10.001 15.9478C10.001 15.9478 3.07795 11.4679 3.07795 7.51629C3.07795 5.51496 4.7173 3.89269 6.73975 3.89269C8.1613 3.89269 9.39422 4.69401 10.001 5.86456C10.6077 4.69401 11.8406 3.89269 13.2622 3.89269C15.2846 3.89269 16.924 5.51496 16.924 7.51629C16.924 11.4679 10.001 15.9478 10.001 15.9478Z"></path>
  </symbol>
  <symbol fill="none" xmlns="http://www.w3.org/2000/svg" viewBox="0 0 20 20" id="shopping-cart">
    <g clip-path="url(#clip0_1_16000)">
      <path
        d="M19.1523 7.25427H15.0031L12.6756 1.92486C12.5461 1.62833 12.2007 1.49282 11.9042 1.62239C11.6076 1.75189 11.4722 2.09732 11.6017 2.39388L13.7244 7.25431H6.27561L8.39827 2.39388C8.52776 2.09732 8.39237 1.75193 8.09581 1.62239C7.79929 1.49282 7.45382 1.62825 7.32436 1.92486L4.99686 7.25427H0.847685C0.304911 7.25427 -0.0979012 7.74564 0.0208488 8.26286L2.20581 17.7797C2.29257 18.1576 2.63608 18.4261 3.03265 18.4261H16.9673C17.3639 18.4261 17.7074 18.1576 17.7942 17.7797L19.9791 8.26286C20.0979 7.74568 19.695 7.25427 19.1523 7.25427ZM5.1071 9.0513C5.02882 9.0513 4.94925 9.03552 4.87288 9.00216C4.57632 8.87267 4.44089 8.52728 4.57042 8.23068L5.01057 7.22278H6.28933L5.64432 8.69966C5.54819 8.91993 5.33296 9.0513 5.1071 9.0513ZM7.0703 15.3011C7.0703 15.6247 6.80796 15.8871 6.48436 15.8871C6.16077 15.8871 5.89843 15.6247 5.89843 15.3011V11.0043C5.89843 10.6807 6.16077 10.4183 6.48436 10.4183C6.80796 10.4183 7.0703 10.6807 7.0703 11.0043V15.3011ZM10.5859 15.3011C10.5859 15.6247 10.3236 15.8871 9.99999 15.8871C9.6764 15.8871 9.41405 15.6247 9.41405 15.3011V11.0043C9.41405 10.6807 9.6764 10.4183 9.99999 10.4183C10.3236 10.4183 10.5859 10.6807 10.5859 11.0043V15.3011ZM14.1016 15.3011C14.1016 15.6247 13.8392 15.8871 13.5156 15.8871C13.192 15.8871 12.9297 15.6247 12.9297 15.3011V11.0043C12.9297 10.6807 13.192 10.4183 13.5156 10.4183C13.8392 10.4183 14.1016 10.6807 14.1016 11.0043V15.3011ZM15.1271 9.00216C15.0507 9.03552 14.9712 9.0513 14.8929 9.0513C14.667 9.0513 14.4518 8.91997 14.3556 8.6997L13.7106 7.22282H14.9894L15.4295 8.23071C15.5591 8.52728 15.4236 8.87267 15.1271 9.00216Z"
        fill="#6F73EE"></path>
    </g>
    <defs>
      <clipPath id="clip0_1_16000">
        <rect width="20" height="20" fill="white"></rect>
      </clipPath>
    </defs>
  </symbol>
  <symbol xmlns="http://www.w3.org/2000/svg" viewBox="0 0 24 24" id="scales">
    <path
      d="M3.75 3C3.33579 3 3 3.33579 3 3.75C3 4.16421 3.33579 4.5 3.75 4.5H4.792L2.05543 11.217C2.01882 11.3069 2 11.403 2 11.5C2 13.433 3.567 15 5.5 15C7.433 15 9 13.433 9 11.5C9 11.403 8.98118 11.3069 8.94457 11.217L6.208 4.5H11.25V16.5H7.25293C6.01029 16.5 5.00293 17.5074 5.00293 18.75C5.00293 19.9926 6.01029 21 7.25293 21H16.75C17.9926 21 19 19.9926 19 18.75C19 17.5074 17.9926 16.5 16.75 16.5H12.75V4.5H17.792L15.0554 11.217C15.0188 11.3069 15 11.403 15 11.5C15 13.433 16.567 15 18.5 15C20.433 15 22 13.433 22 11.5C22 11.403 21.9812 11.3069 21.9446 11.217L19.208 4.5H20.25C20.6642 4.5 21 4.16421 21 3.75C21 3.33579 20.6642 3 20.25 3H3.75ZM5.5 6.73782L7.13459 10.75H3.86541L5.5 6.73782ZM16.8654 10.75L18.5 6.73782L20.1346 10.75H16.8654Z">
    </path>
  </symbol>
  <symbol xmlns="http://www.w3.org/2000/svg" viewBox="0 0 16 16" id="energy">
    <path d="M12.1998 0H6.19959L3.80035 8.63849H6.20448L4.16032 16H4.88044L11.8393 7.36114H8.31397L12.1998 0Z"></path>
  </symbol>
  <symbol xmlns="http://www.w3.org/2000/svg" viewBox="0 0 16 16" id="scooter">
    <g clip-path="url(#clip0_1_14920)">
      <path
        d="M12.9407 10.8467L10.3157 1.86234L12.0813 1.67171C12.4469 1.63109 12.7125 1.30296 12.6719 0.937337C12.6313 0.571712 12.3063 0.302962 11.9375 0.346712L6.84067 0.896712C6.47505 0.937337 6.20942 1.26546 6.25005 1.63109C6.28755 1.97171 6.57505 2.22484 6.91255 2.22484C6.93755 2.22484 6.95942 2.22484 6.98442 2.22171L8.97192 2.00921L11.6469 11.1842C11.1188 11.4936 10.7219 11.9936 10.5469 12.5873H5.45317C5.15942 11.5842 4.22505 10.8467 3.11255 10.8467C1.76567 10.8467 0.675049 11.9248 0.675049 13.253C0.675049 14.5811 1.76567 15.6592 3.11255 15.6592C4.22505 15.6592 5.15942 14.9248 5.45317 13.9186H10.5438C10.8375 14.9217 11.7719 15.6592 12.8844 15.6592C14.2313 15.6592 15.3219 14.5811 15.3219 13.253C15.3219 11.9405 14.2625 10.8748 12.9407 10.8467Z">
      </path>
    </g>
    <defs>
      <clipPath id="clip0_1_14920">
        <rect width="16" height="16" fill="white"></rect>
      </clipPath>
    </defs>
  </symbol>
  <symbol fill="none" xmlns="http://www.w3.org/2000/svg" viewBox="0 0 15 15" id="pin">
    <path
      d="M11.9468 1.84193C10.7591 0.654143 9.1798 0 7.50008 0C5.82034 0 4.24111 0.654114 3.05327 1.84193C1.86551 3.02969 1.21136 4.60886 1.21136 6.2886C1.21136 7.96834 1.86551 9.54757 3.05327 10.7354L7.18936 14.8713C7.27517 14.9571 7.38764 15 7.50008 15C7.61255 15 7.72502 14.9571 7.8108 14.8713L11.9467 10.7354C13.1345 9.5476 13.7887 7.96837 13.7887 6.28863C13.7887 4.60883 13.1346 3.02966 11.9468 1.84193ZM9.47505 8.26351C8.94753 8.79103 8.24616 9.08157 7.50011 9.08157C6.75406 9.08157 6.05269 8.79106 5.5252 8.26354C4.99765 7.73602 4.70714 7.03465 4.70714 6.2886C4.70714 5.54258 4.99765 4.84121 5.5252 4.31366C6.05269 3.78614 6.75406 3.49563 7.50011 3.49563C8.24616 3.49563 8.94753 3.78614 9.47505 4.31366C10.0026 4.84115 10.2931 5.54252 10.2931 6.28857C10.2931 7.03462 10.0025 7.73602 9.47505 8.26351Z"
      fill="white"></path>
  </symbol>
  <symbol fill="none" xmlns="http://www.w3.org/2000/svg" viewBox="0 0 22 22" id="check">
    <path
      d="M15.0168 7.58398H14.0092C13.79 7.58398 13.5816 7.68926 13.4527 7.86973L10.0754 12.5533L8.54566 10.4307C8.41676 10.2523 8.21051 10.1449 7.98922 10.1449H6.9816C6.84195 10.1449 6.76031 10.3039 6.84195 10.4178L9.51891 14.1303C9.58215 14.2185 9.66552 14.2905 9.7621 14.3401C9.85868 14.3897 9.9657 14.4156 10.0743 14.4156C10.1829 14.4156 10.2899 14.3897 10.3865 14.3401C10.483 14.2905 10.5664 14.2185 10.6297 14.1303L15.1543 7.85684C15.2381 7.74297 15.1564 7.58398 15.0168 7.58398Z"
      fill="#6F73EE"></path>
    <path
      d="M11 1.375C5.68477 1.375 1.375 5.68477 1.375 11C1.375 16.3152 5.68477 20.625 11 20.625C16.3152 20.625 20.625 16.3152 20.625 11C20.625 5.68477 16.3152 1.375 11 1.375ZM11 18.9922C6.58711 18.9922 3.00781 15.4129 3.00781 11C3.00781 6.58711 6.58711 3.00781 11 3.00781C15.4129 3.00781 18.9922 6.58711 18.9922 11C18.9922 15.4129 15.4129 18.9922 11 18.9922Z"
      fill="#6F73EE"></path>
  </symbol>
  <symbol fill="none" xmlns="http://www.w3.org/2000/svg" viewBox="0 0 18 18" id="accumulator">
    <path
      d="M16.5 3.75001V2.99999C16.5 2.58655 16.1638 2.25 15.75 2.25H13.5C13.0862 2.25 12.75 2.58655 12.75 2.99999V3.74998H12.5303L12.2198 3.43944C11.9407 3.16002 11.554 2.99999 11.1592 2.99999H6.84081C6.44604 2.99999 6.05932 3.16002 5.78025 3.43944L5.46971 3.74998H5.24999V2.99999C5.24999 2.58655 4.91382 2.25 4.5 2.25H2.25C1.83618 2.25 1.50001 2.58655 1.50001 2.99999V3.74998C0.673102 3.75001 0 4.42273 0 5.24999V14.25C0 15.0773 0.673102 15.75 1.50001 15.75H16.5C17.3269 15.75 18 15.0773 18 14.25V5.24999C18 4.42273 17.3269 3.75001 16.5 3.75001ZM4.12499 7.49999H2.62501C2.41773 7.49999 2.25 7.33226 2.25 7.12498C2.25 6.91773 2.41773 6.75 2.62501 6.75H4.12502C4.3323 6.75 4.50004 6.91773 4.50004 7.12501C4.5 7.33229 4.33227 7.49999 4.12499 7.49999ZM15.375 7.49999H15V7.875C15 8.08228 14.8322 8.25001 14.625 8.25001C14.4177 8.25001 14.25 8.08228 14.25 7.875V7.49999H13.8749C13.6677 7.49999 13.4999 7.33226 13.4999 7.12498C13.4999 6.9177 13.6677 6.74996 13.8749 6.74996H14.25V6.37495C14.25 6.16767 14.4177 5.99994 14.625 5.99994C14.8322 5.99994 15 6.16767 15 6.37495V6.75H15.375C15.5823 6.75 15.75 6.91773 15.75 7.12501C15.75 7.33229 15.5823 7.49999 15.375 7.49999Z"
      fill="#5D6C7B"></path>
  </symbol>
  <symbol fill="none" xmlns="http://www.w3.org/2000/svg" viewBox="0 0 18 18" id="power">
    <path
      d="M14.2233 0.260732C14.14 0.101188 13.9749 0 13.7948 0H6.72925C6.51557 0 6.32727 0.141421 6.26614 0.346092L3.74218 8.80412C3.69851 8.95043 3.72654 9.10792 3.81776 9.23032C3.90898 9.35277 4.0527 9.42405 4.20529 9.42405H8.16696L6.57097 17.4212C6.52452 17.6538 6.65367 17.8862 6.87586 17.9691C6.93126 17.9898 6.98841 18 7.04477 18C7.21428 18 7.37679 17.9106 7.46487 17.7559L13.689 6.82597C13.7741 6.67634 13.7733 6.49172 13.6868 6.34287C13.6003 6.19402 13.4412 6.10147 13.269 6.10147H10.4664L14.1912 0.760267C14.2942 0.612563 14.3066 0.420397 14.2233 0.260732Z"
      fill="#5D6C7B"></path>
  </symbol>
  <symbol fill="none" xmlns="http://www.w3.org/2000/svg" viewBox="0 0 18 18" id="speedometer">
    <path
      d="M8.47256 4.5644V1.23605C6.43975 1.35274 4.53344 2.14266 3.01184 3.49874L5.36506 5.85196C6.25065 5.11474 7.32597 4.66917 8.47256 4.5644Z"
      fill="#5D6C7B"></path>
    <path
      d="M4.61919 6.59759L2.266 4.24442C0.908759 5.76559 0.117849 7.67203 0.000427246 9.70533H3.32892C3.43438 8.5585 3.88087 7.48311 4.61919 6.59759Z"
      fill="#5D6C7B"></path>
    <path
      d="M14.671 9.70533H17.9995C17.8821 7.67203 17.0912 5.76559 15.7339 4.24442L13.3807 6.59759C14.1191 7.48307 14.5655 8.5585 14.671 9.70533Z"
      fill="#5D6C7B"></path>
    <path
      d="M14.6704 10.76C14.4959 12.676 13.4442 13.845 13.0266 14.2625C12.8203 14.4688 12.8203 14.8033 13.0266 15.0096L14.6267 16.6097C14.7298 16.7128 14.865 16.7644 15.0002 16.7644C15.1354 16.7644 15.2705 16.7128 15.3737 16.6097C16.9531 15.0305 17.874 12.9698 18 10.76H14.6704Z"
      fill="#5D6C7B"></path>
    <path
      d="M3.27189 13.7858C3.41919 13.5544 3.64215 13.2058 3.90962 12.7933C3.63544 12.2499 3.40358 11.5724 3.32965 10.76H0C0.126035 12.9698 1.04695 15.0305 2.62628 16.6097C2.72943 16.7129 2.8646 16.7644 2.99978 16.7644C3.13495 16.7644 3.27016 16.7128 3.37331 16.6097L3.92119 16.0618C3.76249 15.9854 3.61607 15.8821 3.48785 15.754C2.95952 15.2256 2.87068 14.4163 3.27189 13.7858Z"
      fill="#5D6C7B"></path>
    <path
      d="M9.52734 1.23605V4.5644C10.6739 4.66917 11.7493 5.1147 12.6348 5.85196L14.9881 3.49874C13.4665 2.14263 11.5601 1.35274 9.52734 1.23605Z"
      fill="#5D6C7B"></path>
    <path
      d="M7.82841 9.06992C7.01222 9.8861 4.45108 13.8972 4.16175 14.352C4.02903 14.5605 4.05899 14.8332 4.23375 15.008C4.40851 15.1827 4.68122 15.2127 4.88976 15.08C5.34444 14.7906 9.35564 12.2295 10.1718 11.4133C10.8179 10.7673 10.8179 9.71602 10.1718 9.06995C9.52576 8.42389 8.47448 8.42385 7.82841 9.06992Z"
      fill="#5D6C7B"></path>
  </symbol>
  <symbol fill="none" xmlns="http://www.w3.org/2000/svg" viewBox="0 0 18 18" id="timer">
    <g clip-path="url(#clip0_703_305)">
      <path
        d="M14.4526 5.35819L15.5303 4.28044L14.4698 3.21956L13.3169 4.3725C12.2636 3.62609 11.0346 3.16607 9.75007 3.0375V1.5H11.2501V0H6.75007V1.5H8.25007V3.0375C6.96557 3.16607 5.7365 3.62609 4.68325 4.3725L3.53031 3.21956L2.46982 4.28044L3.54757 5.35819C2.54155 6.42334 1.86955 7.75982 1.61454 9.20259C1.35953 10.6454 1.53269 12.1312 2.11264 13.4767C2.69258 14.8222 3.6539 15.9683 4.8779 16.7736C6.10189 17.5788 7.53493 18.008 9.00007 18.008C10.4652 18.008 11.8982 17.5788 13.1222 16.7736C14.3462 15.9683 15.3076 14.8222 15.8875 13.4767C16.4674 12.1312 16.6406 10.6454 16.3856 9.20259C16.1306 7.75982 15.4586 6.42334 14.4526 5.35819ZM9.00007 16.5C7.81338 16.5 6.65334 16.1481 5.66664 15.4888C4.67995 14.8295 3.91091 13.8925 3.45679 12.7961C3.00266 11.6997 2.88384 10.4933 3.11535 9.32946C3.34686 8.16557 3.91831 7.09647 4.75742 6.25736C5.59654 5.41824 6.66564 4.8468 7.82952 4.61529C8.99341 4.38378 10.1998 4.5026 11.2962 4.95672C12.3925 5.41085 13.3296 6.17988 13.9889 7.16658C14.6482 8.15327 15.0001 9.31331 15.0001 10.5C14.9983 12.0908 14.3656 13.6158 13.2407 14.7407C12.1159 15.8655 10.5908 16.4982 9.00007 16.5Z"
        fill="#5D6C7B"></path>
      <path
        d="M9 6.00015V10.5002H4.5C4.5 11.3902 4.76392 12.2602 5.25839 13.0002C5.75285 13.7402 6.45566 14.317 7.27792 14.6576C8.10019 14.9982 9.00499 15.0873 9.87791 14.9137C10.7508 14.7401 11.5526 14.3115 12.182 13.6821C12.8113 13.0528 13.2399 12.251 13.4135 11.3781C13.5872 10.5051 13.4981 9.60034 13.1575 8.77808C12.8169 7.95581 12.2401 7.25301 11.5001 6.75854C10.76 6.26407 9.89002 6.00015 9 6.00015Z"
        fill="#5D6C7B"></path>
    </g>
    <defs>
      <clipPath id="clip0_703_305">
        <rect width="18" height="18" fill="white"></rect>
      </clipPath>
    </defs>
  </symbol>
  <symbol fill="none" xmlns="http://www.w3.org/2000/svg" viewBox="0 0 20 20" id="shopping">
    <g clip-path="url(#clip0_703_319)">
      <path
        d="M19.703 7.22908C19.4389 6.89775 19.0427 6.70767 18.6159 6.70767H14.7642L12.6756 1.92513C12.5461 1.62861 12.2007 1.4931 11.9041 1.62267C11.6076 1.75216 11.4721 2.09759 11.6017 2.39415L13.4854 6.70771H6.51443L8.39822 2.39415C8.52771 2.09759 8.39232 1.7522 8.09576 1.62267C7.79924 1.4931 7.45381 1.62853 7.32432 1.92513L5.23568 6.70771H1.38396C0.957168 6.70771 0.560957 6.89775 0.296855 7.22911C0.0375977 7.55443 -0.0580664 7.97263 0.0343946 8.37661L2.09131 17.361C2.23494 17.9883 2.7899 18.4265 3.44088 18.4265H16.559C17.21 18.4265 17.7649 17.9883 17.9086 17.361L19.9655 8.37658C20.0579 7.97259 19.9623 7.55439 19.703 7.22908ZM16.559 17.2545H3.44088C3.34139 17.2545 3.25424 17.1893 3.23365 17.0994L1.17674 8.11509C1.16061 8.04458 1.18768 7.99154 1.2133 7.95947C1.23705 7.92962 1.29084 7.87958 1.38396 7.87958H4.72393L4.57045 8.23103C4.44096 8.52759 4.57635 8.87298 4.87291 9.00251C4.94924 9.03587 5.02877 9.05165 5.10709 9.05165C5.33295 9.05165 5.54818 8.92029 5.64436 8.70009L6.00268 7.87966H13.9973L14.3556 8.70009C14.4518 8.92033 14.667 9.05165 14.8929 9.05165C14.9712 9.05165 15.0507 9.03587 15.1271 9.00251C15.4236 8.87302 15.559 8.52759 15.4295 8.23103L15.276 7.87958H18.616C18.7091 7.87958 18.7629 7.92962 18.7867 7.95947C18.8122 7.99158 18.8394 8.04462 18.8232 8.11505L16.7663 17.0994C16.7457 17.1893 16.6585 17.2545 16.559 17.2545Z"
        fill="#6F73EE"></path>
      <path
        d="M19.703 7.22908C19.4389 6.89775 19.0427 6.70767 18.6159 6.70767H14.7642L12.6756 1.92513C12.5461 1.62861 12.2007 1.4931 11.9041 1.62267C11.6076 1.75216 11.4721 2.09759 11.6017 2.39415L13.4854 6.70771H6.51443L8.39822 2.39415C8.52771 2.09759 8.39232 1.7522 8.09576 1.62267C7.79924 1.4931 7.45381 1.62853 7.32432 1.92513L5.23568 6.70771H1.38396C0.957168 6.70771 0.560957 6.89775 0.296855 7.22911C0.0375977 7.55443 -0.0580664 7.97263 0.0343946 8.37661L2.09131 17.361C2.23494 17.9883 2.7899 18.4265 3.44088 18.4265H16.559C17.21 18.4265 17.7649 17.9883 17.9086 17.361L19.9655 8.37658C20.0579 7.97259 19.9623 7.55439 19.703 7.22908ZM16.559 17.2545H3.44088C3.34139 17.2545 3.25424 17.1893 3.23365 17.0994L1.17674 8.11509C1.16061 8.04458 1.18768 7.99154 1.2133 7.95947C1.23705 7.92962 1.29084 7.87958 1.38396 7.87958H4.72393L4.57045 8.23103C4.44096 8.52759 4.57635 8.87298 4.87291 9.00251C4.94924 9.03587 5.02877 9.05165 5.10709 9.05165C5.33295 9.05165 5.54818 8.92029 5.64436 8.70009L6.00268 7.87966H13.9973L14.3556 8.70009C14.4518 8.92033 14.667 9.05165 14.8929 9.05165C14.9712 9.05165 15.0507 9.03587 15.1271 9.00251C15.4236 8.87302 15.559 8.52759 15.4295 8.23103L15.276 7.87958H18.616C18.7091 7.87958 18.7629 7.92962 18.7867 7.95947C18.8122 7.99158 18.8394 8.04462 18.8232 8.11505L16.7663 17.0994C16.7457 17.1893 16.6585 17.2545 16.559 17.2545Z"
        stroke="#6F73EE"></path>
      <path
        d="M6.48438 10.4188C6.16078 10.4188 5.89844 10.6812 5.89844 11.0048V15.3016C5.89844 15.6252 6.16078 15.8876 6.48438 15.8876C6.80797 15.8876 7.07031 15.6252 7.07031 15.3016V11.0048C7.07031 10.6812 6.80801 10.4188 6.48438 10.4188Z"
        fill="#6F73EE"></path>
      <path
        d="M6.48438 10.4188C6.16078 10.4188 5.89844 10.6812 5.89844 11.0048V15.3016C5.89844 15.6252 6.16078 15.8876 6.48438 15.8876C6.80797 15.8876 7.07031 15.6252 7.07031 15.3016V11.0048C7.07031 10.6812 6.80801 10.4188 6.48438 10.4188Z"
        stroke="#6F73EE"></path>
      <path
        d="M10 10.4188C9.67641 10.4188 9.41406 10.6812 9.41406 11.0048V15.3016C9.41406 15.6252 9.67641 15.8876 10 15.8876C10.3236 15.8876 10.5859 15.6252 10.5859 15.3016V11.0048C10.5859 10.6812 10.3236 10.4188 10 10.4188Z"
        fill="#6F73EE"></path>
      <path
        d="M10 10.4188C9.67641 10.4188 9.41406 10.6812 9.41406 11.0048V15.3016C9.41406 15.6252 9.67641 15.8876 10 15.8876C10.3236 15.8876 10.5859 15.6252 10.5859 15.3016V11.0048C10.5859 10.6812 10.3236 10.4188 10 10.4188Z"
        stroke="#6F73EE"></path>
      <path
        d="M13.5156 10.4188C13.192 10.4188 12.9297 10.6812 12.9297 11.0048V15.3016C12.9297 15.6252 13.192 15.8876 13.5156 15.8876C13.8392 15.8876 14.1016 15.6252 14.1016 15.3016V11.0048C14.1015 10.6812 13.8392 10.4188 13.5156 10.4188Z"
        fill="#6F73EE"></path>
      <path
        d="M13.5156 10.4188C13.192 10.4188 12.9297 10.6812 12.9297 11.0048V15.3016C12.9297 15.6252 13.192 15.8876 13.5156 15.8876C13.8392 15.8876 14.1016 15.6252 14.1016 15.3016V11.0048C14.1015 10.6812 13.8392 10.4188 13.5156 10.4188Z"
        stroke="#6F73EE"></path>
    </g>
    <defs>
      <clipPath id="clip0_703_319">
        <rect width="20" height="20" fill="white"></rect>
      </clipPath>
    </defs>
  </symbol>
</svg>